<svg xmlns="http://www.w3.org/2000/svg" data-name="Layer 1" viewBox="0 0 100 125" x="0px" y="0px"><title>Artboard 16</title><path d="M4.78,84.82h3.6l17.47-.07,4.17,0a14.72,14.72,0,0,1,3.5.48,15.18,15.18,0,0,1,6,3.19c.43.38.79.74,1.23,1.19a22.31,22.31,0,0,0,1.79,1.58,17.72,17.72,0,0,0,2,1.18c.3.14.72.31,1.08.45l1.1.32a13.28,13.28,0,0,0,2.2.34,10.36,10.36,0,0,0,2.22,0A11.6,11.6,0,0,0,53.3,93l1-.34c.31-.13.6-.27.88-.41h0l.07,0-.06,0h0l0,0,.06,0,.12-.07.25-.14.49-.29a8.65,8.65,0,0,0,.93-.61c.55-.45,1-.94,1.55-1.4a4.52,4.52,0,0,0,.36-.39l.25-.29c.16-.18.31-.37.48-.53.32-.35.67-.67,1-1a15.43,15.43,0,0,1,4.4-2.66,16.65,16.65,0,0,1,4.34-1.08l1-.08,1.07-.06,2-.12c.52,0,.91-.7.88-1.47s-.41-1.25-.88-1.28l-2-.12-1.07-.06-1.2,0a18.66,18.66,0,0,0-5.36.86,18.4,18.4,0,0,0-5.73,3c-.46.37-.92.75-1.37,1.17-.23.2-.44.43-.66.66l-.32.33a2.18,2.18,0,0,1-.23.22l-1.06.87a4.57,4.57,0,0,1-.58.33l-.29.16-.15.08-.07,0,0,0h0l.06,0h0l-.15.07-.6.24-.65.18a7.3,7.3,0,0,1-1.35.22,5.94,5.94,0,0,1-1.36,0A8.85,8.85,0,0,1,48,88.58l-.67-.23c-.22-.1-.38-.16-.64-.3s-.85-.48-1.22-.78-.75-.66-1.06-1c-.44-.5-1-1.08-1.52-1.58a19.94,19.94,0,0,0-8-4.5,19.68,19.68,0,0,0-4.73-.75l-.6,0H28l-2.13,0L8.38,79.33H6.25V77.54l0-8.82C6.14,57,6,45.75,5.76,35.88c-.11-4.93-.25-9.51-.4-13.59v-.37l2.36-.11,4.3-.24c0,17.05.17,33.79.4,48.21v.08h0a2.3,2.3,0,0,0,2.34,2.26l10.89-.19,5-.1a23.5,23.5,0,0,1,4.39.35A25.6,25.6,0,0,1,48.2,78.69a1.36,1.36,0,0,0,1.86-.17h0a1.28,1.28,0,0,0,.1-1.75A27.14,27.14,0,0,0,35.8,68.4a26.58,26.58,0,0,0-5.08-.65l-5.08-.12-8.52-.15c.24-16.62.37-36.08.38-55.48H30.41l1.07,0c.71,0,1.42.09,2.12.2a24,24,0,0,1,13.73,6.85c-.29,2.12.15,4.59,1.32,5.68a10.25,10.25,0,0,0,1.44.05,8.38,8.38,0,0,0,1.24-.05c1.18-1.09,1.62-3.57,1.32-5.69A24.25,24.25,0,0,1,68,11.66c.74-.07,1.39-.09,2.18-.11l2.3,0,4.46-.08,6.35-.14c.18,9.18.38,15.24.61,20.08a1.3,1.3,0,0,0,1.44,1.14,1.27,1.27,0,0,0,1.24-1.14c.13-2.75.26-5.9.37-9.78,1.34.22,3,.42,4.88.59l2.25.17v.29c-.23,4.76-.34,10.2-.34,15.64,0,10.88.48,21.76,1.41,27.18,0,.19.68.33,1.44.32s1.21-.15,1.24-.32c.93-5.42,1.41-16.3,1.41-27.18,0-5.44-.11-10.88-.34-15.64l0-.88c0-.16,0-.19,0-.71a3.58,3.58,0,0,0-2.05-2.76,3.48,3.48,0,0,0-1.11-.3l-.28,0h-.4l-3.11.24c-1.86.16-3.49.36-4.81.58.07-2.79.14-5.93.2-9.54a1.94,1.94,0,0,0-1.91-2h-.08l-8.3-.19L72.48,7l-2.3,0c-.76,0-1.67,0-2.51,0A28.72,28.72,0,0,0,50,14.4,28.93,28.93,0,0,0,34.36,6.85c-.86-.13-1.73-.2-2.61-.26l-1.32,0H14.74A2.74,2.74,0,0,0,12,9.26q0,4.78,0,9.57l-4.29-.24-2.78-.13H4.71a2.89,2.89,0,0,0-.43,0,3,3,0,0,0-.83.25,3,3,0,0,0-1.3,1.15,3,3,0,0,0-.36.82,3.22,3.22,0,0,0-.09.45c0,.13,0,.36,0,.38l0,.76c-.15,4.09-.29,8.66-.4,13.59C1,45.75.88,57,.81,68.72l0,8.82V81a4,4,0,0,0,3.15,3.73A4.16,4.16,0,0,0,4.78,84.82ZM95.2,21.47h0S95.19,21.48,95.2,21.47Z"/><path d="M97.62,76.35c-.17-.19-.41-.46-.54-.58l-.38-.36-.75-.72c-2-1.91-4-3.74-5.8-5.43-3.2-2.91-6.07-5.37-8.31-7.08a21.71,21.71,0,0,0,2.18-15,22.06,22.06,0,0,0-2.46-6.29,21,21,0,0,0-1.71-2.41c-.3-.36-.58-.71-.88-1L78,36.59c-.34-.32-1-.12-1.54.44s-.64,1.09-.42,1.38l.68.88c.22.31.42.65.64,1a21,21,0,0,1,1.21,2.21,20.48,20.48,0,0,1,1.56,5.41,18.26,18.26,0,0,1-2.93,12.66A18,18,0,0,1,72,65.67a17.75,17.75,0,0,1-7.18,2.56,17.4,17.4,0,0,1-19.5-19.49,17.74,17.74,0,0,1,2.55-7.18A18,18,0,0,1,53,36.31,18.23,18.23,0,0,1,65.6,33.38,20.46,20.46,0,0,1,71,34.94a21.23,21.23,0,0,1,2.2,1.21c.33.22.68.42,1,.63l.88.68c.32.25,1,0,1.56-.57s.61-1.13.31-1.44l-.89-.92c-.32-.3-.68-.58-1-.88a21.28,21.28,0,0,0-2.41-1.71,22.11,22.11,0,0,0-6.31-2.46,21.74,21.74,0,0,0-15.94,2.77A22.11,22.11,0,0,0,40,48,22.48,22.48,0,0,0,73.62,70.66c1.7,2.21,4.12,5,7,8.15,1.69,1.85,3.52,3.8,5.43,5.8l.72.75.36.38c.13.14.39.37.59.55a7,7,0,0,0,9.91-9.93Zm-4.33,5.59a1.68,1.68,0,0,1-1.45.46,1.84,1.84,0,0,1-.72-.31l-.19-.16-.38-.36-.75-.72c-2-1.92-4-3.75-5.8-5.43-2.92-2.66-5.57-4.95-7.7-6.63a22.4,22.4,0,0,0,3.79-3.92c1.68,2.15,4,4.83,6.67,7.78,1.68,1.85,3.51,3.81,5.43,5.8l.72.75.36.38c.12.12.1.13.17.19a1.83,1.83,0,0,1,.31.72A1.68,1.68,0,0,1,93.29,81.94Z"/><text x="0" y="115" fill="#000000" font-size="5px" font-weight="bold" font-family="'Helvetica Neue', Helvetica, Arial-Unicode, Arial, Sans-serif">Created by Gregor Cresnar</text><text x="0" y="120" fill="#000000" font-size="5px" font-weight="bold" font-family="'Helvetica Neue', Helvetica, Arial-Unicode, Arial, Sans-serif">from the Noun Project</text></svg>